<?xml version="1.0"?>
<!DOCTYPE svg PUBLIC "-//W3C//DTD SVG 1.1//EN" "http://www.w3.org/Graphics/SVG/1.1/DTD/svg11.dtd">
<svg id="zusvgimgkage" xmlns="http://www.w3.org/2000/svg" xmlns:xlink="http://www.w3.org/1999/xlink" version="1.1"
    baseProfile="full" viewBox="0 0 200 200" width="100" height="100">
    <g fill="black">
        <polygon points="14,53 76,53 76,57 14,57 "></polygon>
        <polygon points="76,53 52,55 64,43 "></polygon>
        <polygon points="51,16 51,171 39,171 39,14 "></polygon>
        <polygon points="51,16 54,18 49,21 "></polygon>
        <polygon points="39,171 41.4,174.6 45,177 48.6,174.6 51,171 "></polygon>
        <polygon
            points="51,171 50.8,173.5 50.4,176 49.6,178.4 48.3,180.7 46.7,182.7 44.7,184.3 42.4,185.6 40,186.4 37.5,186.8 35,187 35,175 36.2,174.9 37.1,174.7 37.7,174.5 38,174.4 38.2,174.2 38.4,174 38.5,173.7 38.7,173.1 38.9,172.2 39,171 ">
        </polygon>
        <polygon points="35,181 35,175 21,175 21,178 "></polygon>
        <polygon
            points="12.4,116.1 18.9,113.4 25.3,110.8 31.7,108.1 38,105.5 44.3,102.8 50.5,100.1 56.8,97.5 63,94.9 69.2,92.5 75.5,90.2 76.4,91.7 71,95.8 65.5,99.7 59.8,103.3 54,106.9 48.1,110.4 42.1,113.8 36,117.2 29.9,120.5 23.6,123.8 17.3,127 ">
        </polygon>
        <polygon points="17.3,127 12.4,116.1 10.6,116.9 "></polygon>
        <polygon points="17.3,127 20.4,128.9 21.6,121.8 "></polygon>
        <polygon
            points="75.3,30.7 78.3,32.1 81.4,33.5 84.3,35.1 87,36.9 89.6,38.9 91.9,41.2 94.2,43.6 96.2,46.3 98,49.1 99.6,52.1 88.3,56.1 87.7,53.6 87,51.1 86.1,48.6 85,46.2 83.8,43.8 82.3,41.4 80.7,39.1 78.8,36.7 76.8,34.3 74.3,32.2 ">
        </polygon>
        <polygon points="99.6,52.1 99.3,56.7 95.9,59.8 91.4,59.5 88.3,56.1 "></polygon>
        <polygon
            points="69.3,118.2 73.6,122.4 77.4,127 80.7,131.9 83.4,137 85.7,142.5 87.6,148.1 88.9,153.9 89.8,159.9 90.2,166.1 90.2,172.5 78.2,171.4 78.9,165.9 79.1,160.5 79,155.2 78.5,150 77.6,144.8 76.4,139.8 74.7,134.7 72.8,129.6 70.5,124.5 67.9,119.3 ">
        </polygon>
        <polygon points="90.2,172.5 88,176.5 83.7,177.9 79.7,175.8 78.2,171.4 "></polygon>
        <polygon
            points="75.7,132.1 78.1,127.6 80.8,122.5 83.7,116.5 86.7,109.8 90,102.4 93.5,94.3 97.2,85.4 101.1,75.8 105.4,65.6 110.1,54.7 111.8,55.2 109,66.8 106.2,77.6 103.4,87.6 100.6,96.8 97.9,105.4 95.4,113.2 93,120.3 90.7,126.7 88.5,132.4 86.4,137.4 ">
        </polygon>
        <polygon points="86.4,137.4 75.7,132.1 83.7,142.8 "></polygon>
        <polygon
            points="135.7,17.9 133.9,26.3 131.9,34.7 129.7,42.9 127.4,51.1 124.7,59.1 121.9,67 118.8,74.8 115.5,82.5 111.8,90 107.8,97.3 106.1,96.6 108.3,88.6 110.5,80.7 112.6,72.7 114.7,64.8 116.6,56.8 118.4,48.7 120,40.6 121.4,32.5 122.7,24.3 123.9,16 ">
        </polygon>
        <polygon points="123.7,17 135.7,17.9 124.2,14 "></polygon>
        <polygon points="135.7,17.9 138.4,20.4 132.9,22.5 "></polygon>
        <polygon points="123,49 176,49 176,53 123,53 "></polygon>
        <polygon
            points="181.5,53.2 180.3,55.1 179,57.3 177.6,59.6 176.1,62 174.5,64.7 172.8,67.5 170.9,70.4 168.9,73.5 166.8,76.8 164.8,80.3 163.1,79.6 164.3,75.7 165,71.9 165.9,68.3 166.7,64.9 167.4,61.7 168.1,58.8 168.8,56 169.4,53.4 169.9,50.9 170.4,48.7 ">
        </polygon>
        <polygon points="170,49 176,44 187,53 182,56 170,61 "></polygon>
        <polygon
            points="150.9,69.4 148.4,91.9 145.2,111.1 141.3,127.4 136.6,141.2 131.1,152.8 124.7,162.4 117.6,170.4 109.6,177.1 100.9,182.7 91.4,187.7 90.5,186.2 98.8,179.6 106.2,173 112.7,166 118.5,158.1 123.5,148.9 127.9,138 131.6,124.9 134.7,109.2 137.1,90.5 138.9,68.5 ">
        </polygon>
        <polygon points="138.8,69.5 150.9,69.4 139.1,66.3 "></polygon>
        <polygon points="150.9,69.4 153.7,71.6 148.5,74.2 "></polygon>
        <polygon
            points="147.9,74.9 150,91.8 152.6,106.7 155.5,119.7 158.9,131.1 162.7,141.1 166.8,149.6 171.2,157.1 175.9,163.6 180.7,169.3 185.7,174.4 176.2,183.5 171.1,177.3 166.3,170.4 161.7,162.7 157.6,154 154,144.3 150.9,133.4 148.4,121.2 146.7,107.5 145.9,92.1 146.1,75 ">
        </polygon>
        <polygon points="176.2,183.5 185.7,174.4 186.9,175.6 "></polygon>
    </g>
</svg>