<svg xmlns="http://www.w3.org/2000/svg" xmlns:xlink="http://www.w3.org/1999/xlink" version="1.1" baseProfile="full" viewBox="0 0 200 200" width="96" height="96"><path d="M 25.2,18.6 L 28.5,19.8 31.9,20.8 34.9,22 37.8,23.3 40.5,24.8 43.1,26.4 45.4,28.2 47.5,30.2 49.4,32.4 51.1,34.7 40.2,39.7 39.8,38 39.2,36.2 38.3,34.4 37.1,32.4 35.7,30.5 34,28.4 32,26.4 29.8,24.2 27.4,22 24.5,20.2" fill="black"/><path d="M 51.1,34.7 L 51.3,39.3 48.2,42.7 43.6,42.8 40.2,39.7" fill="black"/><path d="M 12.2,66.5 L 15.3,67.6 18.5,68.4 21.5,69.5 24.4,70.8 27,72.3 29.6,74 31.9,75.8 34.1,77.9 36.2,80.1 38,82.6 27.2,88 26.6,86 25.8,84 24.8,82 23.6,80 22.1,78 20.5,76 18.6,73.9 16.5,71.9 14.2,69.8 11.5,68.2" fill="black"/><path d="M 38,82.6 L 38.2,87.1 35.3,90.6 30.7,90.9 27.2,88" fill="black"/><path d="M 13.2,131.4 L 18.5,132.6 23.4,134.9 27.8,138.1 31.7,142.1 34.8,147 37.4,152.6 39.3,158.9 40.5,165.8 41.1,173.3 41.1,181.4 29.2,180.5 29.7,173.3 29.8,166.6 29.4,160.7 28.5,155.3 27.1,150.5 25.3,146.3 23,142.5 20.2,139.1 16.7,136 12.6,133.1" fill="black"/><path d="M 41.1,181.4 L 39.1,185.4 34.7,186.9 30.7,184.9 29.2,180.5" fill="black"/><path d="M 25.4,146.4 L 26.5,143.7 28,139.6 29.9,134.2 32.3,127.3 35.2,119 38.5,109.3 42.3,98.2 46.6,85.8 51.5,71.9 57.1,56.7 58.8,57.2 55.2,73 51.8,87.3 48.6,100.1 45.8,111.5 43.3,121.4 41.3,129.9 39.6,137 38.3,142.6 37.4,146.8 37,149.6" fill="black"/><path d="M 37,149.6 L 25.4,146.4 24.9,148.3" fill="black"/><path d="M 37,149.6 L 40.4,148.4 35.7,143" fill="black"/><path d="M 128,15 L 128,40 116,46 116,13" fill="black"/><path d="M 128,15 L 131,17 126,20" fill="black"/><path d="M 122,25 L 177,25 177,29 122,29" fill="black"/><path d="M 177,25 L 153,27 165,15" fill="black"/><path d="M 73,41 L 186,41 186,45 73,45" fill="black"/><path d="M 190.9,46.3 L 189.3,47.9 187.6,49.5 185.9,51.1 184.1,52.7 182.3,54.2 180.5,55.7 178.5,57.2 176.5,58.6 174.4,59.9 172.6,61.5 171.3,60.4 172.7,58.4 173.6,56.1 174.6,53.9 175.6,51.8 176.6,49.7 177.5,47.6 178.4,45.6 179.3,43.6 180.1,41.6 181,39.6" fill="black"/><path d="M 180,41 L 186,36 197,45 192,48 180,53" fill="black"/><path d="M 80.8,65 L 166.8,58 167.1,61.9 81.1,68.9" fill="black"/><path d="M 166.8,58 L 143,61.9 154,49" fill="black"/><path d="M 123,48 L 123,72 111,72 111,46" fill="black"/><path d="M 123,48 L 126,50 121,53" fill="black"/><path d="M 111,72 L 113.4,75.6 117,78 120.6,75.6 123,72" fill="black"/><path d="M 123,72 L 122.8,73.2 122.8,74.2 122.8,74.9 122.9,75.5 123,75.9 123.2,76.4 123.7,76.8 124.4,77.3 125.5,77.7 127,78 127,86 124.6,86 122.3,85.8 120,85.3 117.9,84.3 115.9,83 114.2,81.2 112.9,79.2 111.9,76.9 111.3,74.5 111,72" fill="black"/><path d="M 127,78 L 129.8,79.2 131,82 129.8,84.8 127,86" fill="black"/><path d="M 127,78 L 181,78 181,86 127,86" fill="black"/><path d="M 181,78 L 183.4,79.6 185,82 183.4,84.4 181,86" fill="black"/><path d="M 181,78 L 183,69 181,69 177,78" fill="black"/><path d="M 79,41 L 79,94 67,94 67,35" fill="black"/><path d="M 67,94 L 69.4,97.6 73,100 76.6,97.6 79,94" fill="black"/><path d="M 79,94 L 78.4,107.2 77.5,119.5 76.2,130.9 74.5,141.2 72.3,150.6 69.7,159 66.7,166.3 63.2,172.6 59.1,177.8 54.6,181.6 53.3,180.3 56,175.6 58.4,170.1 60.6,163.9 62.5,156.8 64.1,148.8 65.3,139.8 66.2,129.8 66.8,118.8 67.1,106.9 67,94" fill="black"/><path d="M 105,90 L 105,117 93,123 93,84" fill="black"/><path d="M 99,90 L 161,90 161,94 99,94" fill="black"/><path d="M 167,92 L 167,117 155,123 155,92" fill="black"/><path d="M 155,90 L 161,85 172,94 167,98 155,92" fill="black"/><path d="M 99,113 L 161,113 161,117 99,117" fill="black"/><path d="M 73,128 L 188,128 188,132 73,132" fill="black"/><path d="M 188,128 L 168,130 178,119" fill="black"/><path d="M 118.2,133.1 L 110.8,152 97.5,153.2 107.7,126.8" fill="black"/><path d="M 118.2,133.1 L 120.3,136 114.9,137.1" fill="black"/><path d="M 106,146 L 162,146 162,150 106,150" fill="black"/><path d="M 167.9,148.5 L 167.4,153 166.7,157.3 165.8,161.2 164.7,164.9 163.4,168.4 161.8,171.5 159.9,174.4 157.8,177 155.3,179.3 152.6,181.1 146.6,170.7 147.8,169.9 149,168.8 150.2,167.4 151.3,165.6 152.4,163.5 153.3,161 154.2,158.2 154.9,155 155.5,151.4 156,147.4" fill="black"/><path d="M 156,146 L 162,141 173,150 168,153 156,158" fill="black"/><path d="M 152.6,181.1 L 150.6,182.2 148.5,183.2 146.5,184.1 144.3,184.8 142.2,185.5 140,186 137.8,186.4 135.5,186.7 133.2,186.9 131,187 131,175 132.6,174.9 134.3,174.8 135.9,174.6 137.5,174.3 139.1,173.9 140.6,173.4 142.1,172.9 143.6,172.3 145.1,171.6 146.6,170.7" fill="black"/><path d="M 131,181 L 131,175 111,175 111,178" fill="black"/><script xmlns=""/></svg>