<?xml version="1.0"?>
<!DOCTYPE svg PUBLIC "-//W3C//DTD SVG 1.1//EN" "http://www.w3.org/Graphics/SVG/1.1/DTD/svg11.dtd">
<svg xmlns="http://www.w3.org/2000/svg" version="1.1" width="467" height="462"
    viewBox="0 -21.252000000000002 92.4 110.88000000000001">
    <path fill="currentColor" style="transform: scale(0.462,0.462)" d="M 30,48 L 30,144 18,150 18,42"></path>
    <path fill="currentColor" style="transform: scale(0.462,0.462)" d="M 24,48 L 87,48 87,52 24,52"></path>
    <path fill="currentColor" style="transform: scale(0.462,0.462)" d="M 93,50 L 93,138 81,144 81,50"></path>
    <path fill="currentColor" style="transform: scale(0.462,0.462)" d="M 81,48 L 87,43 98,52 93,56 81,50"></path>
    <path fill="currentColor" style="transform: scale(0.462,0.462)" d="M 24,88 L 87,88 87,92 24,92"></path>
    <path fill="currentColor" style="transform: scale(0.462,0.462)" d="M 24,128 L 87,128 87,132 24,132"></path>
    <path fill="currentColor" style="transform: scale(0.462,0.462)" d="M 61,17 L 61,180 49,186 49,15"></path>
    <path fill="currentColor" style="transform: scale(0.462,0.462)" d="M 61,17 L 64,19 59,22"></path>
    <path fill="currentColor" style="transform: scale(0.462,0.462)" d="M 96.8,74 L 181.8,68 182.1,71.9 97.1,77.9">
    </path>
    <path fill="currentColor" style="transform: scale(0.462,0.462)" d="M 181.8,68 L 158,71.6 169.1,58.8"></path>
    <path fill="currentColor" style="transform: scale(0.462,0.462)"
        d="M 140.3,23.6 L 143.9,25.2 147.5,26.6 150.9,28.4 154.1,30.3 157.1,32.4 159.9,34.7 162.5,37.2 164.9,39.8 167.1,42.7 169.1,45.7 158.2,50.8 157.3,48.2 156.2,45.6 154.9,43 153.4,40.4 151.6,37.9 149.6,35.3 147.4,32.8 145,30.2 142.4,27.6 139.4,25.2">
    </path>
    <path fill="currentColor" style="transform: scale(0.462,0.462)"
        d="M 169.1,45.7 L 169.3,50.2 166.2,53.7 161.7,53.8 158.2,50.8"></path>
    <path fill="currentColor" style="transform: scale(0.462,0.462)"
        d="M 128,18 L 129.2,58.2 132.5,90.9 137.5,116.8 143.7,136.5 150.4,150.8 157.2,160.7 163.5,166.8 169,170.2 173.3,171.6 176,172 176,184 170.7,183.4 164,181.1 156.2,176.3 148,168.4 140,156.8 132.5,140.8 125.9,119.7 120.7,92.7 117.2,59 116,18">
    </path>
    <path fill="currentColor" style="transform: scale(0.462,0.462)" d="M 116,19 L 128,18 116,15.6"></path>
    <path fill="currentColor" style="transform: scale(0.462,0.462)" d="M 128,18 L 131,20 126,23"></path>
    <path fill="currentColor" style="transform: scale(0.462,0.462)"
        d="M 176,172 L 180.2,173.8 182,178 180.2,182.2 176,184"></path>
    <path fill="currentColor" style="transform: scale(0.462,0.462)" d="M 176,173 L 178,147 176,147 170,173"></path>
    <path fill="currentColor" style="transform: scale(0.462,0.462)"
        d="M 170.2,99.1 L 163.9,112.8 156.9,125.5 149.1,137.2 140.7,147.7 131.6,157.2 121.8,165.5 111.4,172.7 100.3,178.7 88.5,183.4 76.2,186.8 75.7,185.1 87.1,179.9 97.7,173.9 107.7,167.2 117,159.7 125.6,151.2 133.6,141.8 140.9,131.5 147.5,120.2 153.6,107.9 159,94.7">
    </path>
    <path fill="currentColor" style="transform: scale(0.462,0.462)" d="M 158.6,95.6 L 170.2,99.1 159.5,93.3"></path>
    <path fill="currentColor" style="transform: scale(0.462,0.462)" d="M 170.2,99.1 L 172.2,102 166.5,103"></path>
</svg>